<svg fill="none" height="35" viewBox="0 0 187 35" width="187" xmlns="http://www.w3.org/2000/svg" xmlns:xlink="http://www.w3.org/1999/xlink"><clipPath id="a"><path d="m0 0h186.207v34.1379h-186.207z"/></clipPath><g clip-path="url(#a)" fill="#02150b"><path d="m44.8821 1.45032h4.649v24.79448h7.6496v4.1325h-12.2986z"/><path d="m65.9649 30.7905c-2.2822 0-4.029-.6336-5.2407-1.9009-1.2115-1.2674-1.8172-3.058-1.8172-5.3722v-15.20724c0-2.31415.6057-4.10487 1.8172-5.37214 1.2117-1.26728 2.9585-1.90091 5.2407-1.90091s4.0291.63363 5.2407 1.90091c1.2115 1.26727 1.8173 3.05799 1.8173 5.37214v15.20724c0 2.3142-.6058 4.1048-1.8173 5.3722-1.2116 1.2673-2.9585 1.9009-5.2407 1.9009zm0-4.1324c1.6061 0 2.4091-.9505 2.4091-2.8514v-15.78581c0-1.90091-.803-2.85137-2.4091-2.85137-1.606 0-2.409.95046-2.409 2.85137v15.78581c0 1.9009.803 2.8514 2.409 2.8514z"/><path d="m82.7603 30.7905c-2.254 0-3.9727-.6199-5.1562-1.8596-1.1833-1.2672-1.775-3.0718-1.775-5.4135v-15.20724c0-2.3417.5917-4.13242 1.775-5.37214 1.1835-1.26728 2.9022-1.90091 5.1562-1.90091s3.9727.63363 5.1561 1.90091c1.1834 1.23972 1.7751 3.03044 1.7751 5.37214v2.47944h-4.3954v-2.76871c0-1.90091-.803-2.85137-2.4091-2.85137-1.6059 0-2.4089.95046-2.4089 2.85137v15.82721c0 1.8734.803 2.81 2.4089 2.81 1.6061 0 2.4091-.9366 2.4091-2.81v-5.6615h-2.3245v-4.1324h6.7199v9.4632c0 2.3417-.5917 4.1463-1.7751 5.4135-1.1834 1.2397-2.9021 1.8596-5.1561 1.8596z"/><path d="m99.3963 30.7905c-2.2822 0-4.029-.6336-5.2405-1.9009-1.2117-1.2674-1.8174-3.058-1.8174-5.3722v-15.20724c0-2.31415.6057-4.10487 1.8174-5.37214 1.2115-1.26728 2.9583-1.90091 5.2405-1.90091 2.2827 0 4.0287.63363 5.2407 1.90091 1.212 1.26727 1.817 3.05799 1.817 5.37214v15.20724c0 2.3142-.605 4.1048-1.817 5.3722-1.212 1.2673-2.958 1.9009-5.2407 1.9009zm0-4.1324c1.6057 0 2.4087-.9505 2.4087-2.8514v-15.78581c0-1.90091-.803-2.85137-2.4087-2.85137-1.6059 0-2.4089.95046-2.4089 2.85137v15.78581c0 1.9009.803 2.8514 2.4089 2.8514z"/><path d="m109.607 1.45032h4.649v28.92698h-4.649z"/><path d="m117.738 1.45032h6.846c2.311 0 4.043.60608 5.199 1.81826 1.156 1.21217 1.733 2.98911 1.733 5.33081v2.85131c0 2.3418-.577 4.1187-1.733 5.3309-1.156 1.2121-2.888 1.8182-5.199 1.8182h-2.197v11.7775h-4.649zm6.846 13.01708c.762 0 1.325-.2067 1.691-.6198.395-.4133.592-1.1158.592-2.1076v-3.42987c0-.99179-.197-1.6943-.592-2.10754-.366-.41324-.929-.61985-1.691-.61985h-2.197v8.88466z"/><path d="m140.248 30.7905c-2.253 0-3.958-.6199-5.113-1.8596-1.155-1.2672-1.733-3.0718-1.733-5.4135v-1.653h4.396v1.9837c0 1.8734.803 2.81 2.409 2.81.789 0 1.38-.2204 1.774-.6612.423-.4683.635-1.2122.635-2.2316 0-1.2121-.282-2.2727-.845-3.1818-.564-.9368-1.606-2.0525-3.129-3.3474-1.915-1.6529-3.254-3.1405-4.015-4.4629-.76-1.35-1.14-2.86518-1.14-4.54569 0-2.2866.591-4.04977 1.775-5.28949 1.183-1.26728 2.902-1.90091 5.156-1.90091 2.226 0 3.903.63363 5.029 1.90091 1.156 1.23972 1.733 3.03044 1.733 5.37214v1.1984h-4.396v-1.48767c0-.99178-.196-1.70807-.591-2.14886-.394-.46834-.972-.70251-1.733-.70251-1.55 0-2.324.92291-2.324 2.76872 0 1.04687.282 2.02488.845 2.93396.591.9091 1.648 2.0111 3.17 3.306 1.944 1.6529 3.282 3.1544 4.015 4.5044.732 1.3499 1.099 2.9339 1.099 4.7522 0 2.3693-.606 4.1874-1.818 5.4548-1.183 1.2673-2.916 1.9009-5.199 1.9009z"/><path d="m156.693 30.7904c-2.254 0-3.973-.6198-5.157-1.8596-1.183-1.2672-1.774-3.0717-1.774-5.4134v-22.06708h4.649v22.39768c0 .9917.197 1.7081.591 2.1489.423.4407 1.015.6611 1.775.6611.761 0 1.338-.2204 1.733-.6611.422-.4408.634-1.1572.634-2.1489v-22.39768h4.48v22.06708c0 2.3417-.592 4.1462-1.775 5.4134-1.184 1.2398-2.903 1.8596-5.156 1.8596z"/><path d="m166.934 1.45032h6.636l2.959 20.70338h.083l2.96-20.70338h6.635v28.92698h-4.396v-21.90187h-.084l-3.382 21.90187h-3.888l-3.381-21.90187h-.084v21.90187h-4.058z"/><path d="m0 30.3775c5.71944 0 10.3559-4.5336 10.3559-10.1258 0-5.5924-4.63646-10.1258-10.3559-10.1258v7.088c1.71581 0 3.10676 1.36 3.10676 3.0378 0 1.6776-1.39095 3.0377-3.10676 3.0377z"/><path d="m34.52 13.5011c-1.7697-.5481-3.6542-.8439-5.6095-.8439-10.2473 0-18.5543 8.1226-18.5543 18.1421 0 1.0057.0837 1.9922.2446 2.9533h11.5284c-.4115-.9021-.6403-1.9016-.6403-2.9533 0-4.0078 3.3227-7.2569 7.4216-7.2569 2.2403 0 4.2487.9706 5.6095 2.5051z"/><path d="m1.82056-.00012207c.85857 7.59425207 7.44337 13.50112207 15.43914 13.50112207 7.9956 0 14.5804-5.90687 15.439-13.50112207h-11.109c-.6859 1.68106207-2.3661 2.86896207-4.33 2.86896207-1.9641 0-3.6442-1.1879-4.3302-2.86896207z"/></g></svg>