<svg fill="none" height="50" viewBox="0 0 204 50" width="204" xmlns="http://www.w3.org/2000/svg" xmlns:xlink="http://www.w3.org/1999/xlink"><clipPath id="a"><path d="m0 0h203.921v49.6552h-203.921z"/></clipPath><g clip-path="url(#a)" fill="#02150b"><path d="m61.3691 34.7033h14.4217v-4.2561h-9.2959v-16.0316h-5.1258z"/><path d="m84.3356 31.8658c-2.0561 0-3.1276-1.7592-3.1276-4.398s1.0715-4.4264 3.1276-4.4264 3.1565 1.7876 3.1565 4.4264-1.1004 4.398-3.1565 4.398zm.0289 3.2914c4.7783 0 7.9059-3.3198 7.9059-7.6894 0-4.3697-3.1276-7.6895-7.9059-7.6895-4.7493 0-7.9348 3.3198-7.9348 7.6895 0 4.3696 3.1855 7.6894 7.9348 7.6894z"/><path d="m100.541 39.7256c2.201 0 4.141-.4824 5.444-1.6174 1.188-1.0498 1.97-2.6388 1.97-4.8236v-13.109h-4.518v1.5606h-.058c-.869-1.2201-2.201-1.9862-4.17-1.9862-3.6778 0-6.2262 3.0077-6.2262 7.2638 0 4.4548 3.0986 6.895 6.4289 6.895 1.7953 0 2.9253-.7093 3.7933-1.6741h.116v1.4471c0 1.7592-.84 2.7807-2.838 2.7807-1.5636 0-2.3455-.6526-2.6061-1.4187h-4.5756c.4634 3.0361 3.1566 4.6818 7.2397 4.6818zm-.029-9.2501c-1.7663 0-2.9247-1.4187-2.9247-3.6035 0-2.2132 1.1584-3.632 2.9247-3.632 1.969 0 3.012 1.6458 3.012 3.6036 0 2.043-.956 3.6319-3.012 3.6319z"/><path d="m117.244 31.8658c-2.056 0-3.128-1.7592-3.128-4.398s1.072-4.4264 3.128-4.4264 3.156 1.7876 3.156 4.4264-1.1 4.398-3.156 4.398zm.029 3.2914c4.778 0 7.906-3.3198 7.906-7.6894 0-4.3697-3.128-7.6895-7.906-7.6895-4.75 0-7.935 3.3198-7.935 7.6895 0 4.3696 3.185 7.6894 7.935 7.6894z"/><path d="m126.556 34.7033h4.721v-14.5276h-4.721zm0-16.5422h4.721v-3.7455h-4.721z"/><path d="m133.326 39.4986h4.72v-6.2991h.058c.927 1.2201 2.288 1.9578 4.199 1.9578 3.88 0 6.458-3.0077 6.458-7.7178 0-4.3697-2.404-7.6895-6.342-7.6895-2.027 0-3.475.8796-4.489 2.1848h-.087v-1.7592h-4.517zm7.761-7.9165c-2.028 0-3.186-1.6173-3.186-3.9724s1.043-4.1427 3.099-4.1427c2.027 0 2.983 1.6458 2.983 4.1427 0 2.4686-1.101 3.9724-2.896 3.9724z"/><path d="m156.446 35.1573c3.881 0 6.748-1.6457 6.748-4.8237 0-3.717-3.07-4.3696-5.676-4.7952-1.883-.3405-3.562-.4824-3.562-1.5039 0-.9079.898-1.3336 2.056-1.3336 1.303 0 2.201.3973 2.375 1.7025h4.343c-.231-2.8658-2.49-4.6534-6.689-4.6534-3.504 0-6.4 1.589-6.4 4.6534 0 3.4049 2.751 4.0859 5.328 4.5115 1.97.3405 3.765.4824 3.765 1.7876 0 .9364-.898 1.4471-2.317 1.4471-1.563 0-2.548-.7094-2.722-2.1564h-4.46c.145 3.2063 2.867 5.1641 7.211 5.1641z"/><path d="m169.606 35.1287c2.056 0 3.359-.7945 4.43-2.2132h.087v1.7876h4.518v-14.5277h-4.72v8.1151c0 1.7308-.985 2.9225-2.607 2.9225-1.506 0-2.23-.8796-2.23-2.4685v-8.5691h-4.691v9.5338c0 3.2347 1.796 5.4195 5.213 5.4195z"/><path d="m180.694 34.7033h4.72v-8.1434c0-1.7309.869-2.951 2.346-2.951 1.419 0 2.085.908 2.085 2.4686v8.6258h4.72v-8.1434c0-1.7309.84-2.951 2.346-2.951 1.419 0 2.085.908 2.085 2.4686v8.6258h4.72v-9.4487c0-3.263-1.679-5.5046-5.039-5.5046-1.911 0-3.504.7945-4.662 2.5537h-.058c-.753-1.5606-2.23-2.5537-4.17-2.5537-2.143 0-3.562.9931-4.489 2.4969h-.087v-2.0713h-4.517z"/><path clip-rule="evenodd" d="m24.9584 1.13708c13.5889 0 24.6049 10.79342 24.6049 24.10792 0 13.3146-11.016 24.108-24.6049 24.108s-24.604884-10.7934-24.604884-24.108c0-13.3145 11.015984-24.10792 24.604884-24.10792zm23.6604 24.10792c0-12.8034-10.5931-23.18265-23.6604-23.18265-1.0541 0-2.0919.06753-3.1096.19842.6575-.05632 1.3228-.08508 1.9952-.08508 12.4865 0 22.6088 9.91791 22.6088 22.15221 0 12.2342-10.1223 22.1521-22.6088 22.1521-11.8214 0-21.52368-8.8893-22.52377-20.2179.54328 12.3315 10.91857 22.1656 23.63817 22.1656 13.0673 0 23.6604-10.3792 23.6604-23.1827zm-3.1104-.9171c0-11.7233-9.6994-21.22693-21.6644-21.22693-.9715 0-1.9281.06266-2.8658.18407.5774-.0476 1.1615-.07188 1.7514-.07188 11.3842 0 20.6127 9.04224 20.6127 20.19634 0 11.1542-9.2285 20.1964-20.6127 20.1964-10.7639 0-19.6008-8.0839-20.53156-18.3935.47323 11.3131 9.98346 20.3424 21.64596 20.3424 11.965 0 21.6644-9.5037 21.6644-21.2269zm-22.7788-20.18947c10.8625 0 19.6684 8.62797 19.6684 19.27107s-8.8059 19.2711-19.6684 19.2711c-10.6107 0-19.25914-8.2328-19.65413-18.5348.85279 9.2986 8.82783 16.5859 18.53993 16.5859 10.2809 0 18.6154-8.166 18.6154-18.2394s-8.3345-18.23938-18.6154-18.23938c-.5318 0-1.0585.02186-1.5791.0647.8806-.11815 1.7797-.17919 2.6933-.17919zm16.5568 18.35387c0-9.5623-7.9116-17.3141-17.671-17.3141-.8246 0-1.636.05533-2.4305.16242.4338-.03327.8723-.05021 1.3149-.05021 9.1786 0 16.6193 7.29039 16.6193 16.28369 0 8.9931-7.4407 16.2835-16.6193 16.2835-8.6391 0-15.73855-6.4586-16.54327-14.7166.34815 9.2618 8.12107 16.6655 17.65887 16.6655 9.7594 0 17.671-7.7518 17.671-17.3142zm-18.7866-16.27662c8.657 0 15.6749 6.87622 15.6749 15.35842 0 8.4821-7.0179 15.3583-15.6749 15.3583-8.4865 0-15.39775-6.6079-15.66676-14.859.72655 7.2476 6.96456 12.9102 14.55246 12.9102 8.0762 0 14.6232-6.4149 14.6232-14.3279 0-7.9131-6.547-14.32784-14.6232-14.32784-.3704 0-.7375.01349-1.101.04.7238-.10031 1.4633-.15218 2.2153-.15218zm12.5646 14.44002c0-7.4021-6.1243-13.40256-13.6789-13.40256-.6896 0-1.3673.05-2.0295.14649.3023-.02121.6074-.032.9153-.032 6.973 0 12.6258 5.53867 12.6258 12.37087 0 6.8323-5.6528 12.3708-12.6258 12.3708-6.5342 0-11.90908-4.8632-12.55985-11.0971.19292 7.2373 6.24115 13.0461 13.67405 13.0461 7.5546 0 13.6789-6.0006 13.6789-13.4026zm-14.7931-12.36279c6.4515 0 11.6814 5.12429 11.6814 11.44559s-5.2299 11.4456-11.6814 11.4456c-6.3695 0-11.54831-4.9947-11.6791-11.2048.5884 5.2066 5.0939 9.256 10.5647 9.256 5.8707 0 10.6297-4.663 10.6297-10.4151s-4.759-10.41511-10.6297-10.41511c-.2245 0-.4474.00682-.6684.02026.5812-.08721 1.1765-.13244 1.7828-.13244zm8.571 10.52729c0-5.2411-4.3362-9.48983-9.6854-9.48983-.5372 0-1.0641.04284-1.5775.12523.153-.00789.3069-.01189.462-.01189 4.7681 0 8.6336 3.78729 8.6336 8.45929s-3.8655 8.4594-8.6336 8.4594c-4.409 0-8.04608-3.2383-8.56914-7.4197.06697 5.1847 4.37724 9.3673 9.68464 9.3673 5.3492 0 9.6854-4.2487 9.6854-9.4898zm-10.8009-8.4512c4.2466 0 7.6893 3.373 7.6893 7.534s-3.4427 7.534-7.6893 7.534c-4.2467 0-7.68937-3.373-7.68937-7.534 0-.0099.00003-.02.00006-.0299.44214 3.1708 3.21731 5.614 6.57501 5.614 3.6651 0 6.6363-2.9112 6.6363-6.5024s-2.9712-6.5024-6.6363-6.5024c-.0829 0-.1655.0015-.2476.0045.442-.0774.8971-.1178 1.3619-.1178zm4.5776 6.6157c0-3.0801-2.5483-5.5771-5.6919-5.5771-3.1437 0-5.69209 2.497-5.69209 5.5771s2.54839 5.577 5.69209 5.577c3.1436 0 5.6919-2.4969 5.6919-5.577z" fill-rule="evenodd"/></g></svg>