<svg fill="none" height="47" viewBox="0 0 217 47" width="217" xmlns="http://www.w3.org/2000/svg"><g fill="#02150b"><path d="m34.6776 20.7483c-.5863.5916-1.0352 1.3057-1.3148 2.0912-.2797.7856-.3832 1.6234-.3032 2.4537l-.0278-.0279c.0823.9774-.0492 1.9609-.385 2.8822-.3358.9211-.8679 1.7576-1.5592 2.4513-.6914.6934-1.5253 1.2274-2.4436 1.5641-.9182.3369-1.8987.4688-2.8729.3862l.0278.0279c-1.1653-.1087-2.3358.1456-3.3519.7286-1.0159.583-1.828 1.466-2.3253 2.529-.4973 1.0629-.6558 2.2537-.4538 3.4104.2022 1.1565.7548 2.2223 1.5828 3.0522s1.891 1.3834 3.044 1.5849c1.1531.2018 2.34.0416 3.3991-.4582 1.0591-.5 1.9386-1.3152 2.5188-2.335s.8328-2.1942.7233-3.3632l.0293.0279c-.0823-.9773.0491-1.9609.3849-2.8822.3358-.9211.868-1.7576 1.5593-2.4512.6914-.6935 1.5253-1.2275 2.4435-1.5642.9183-.3369 1.8987-.4688 2.873-.3862l-.0294-.0279c.9519.0858 1.9102-.0708 2.7858-.4553.8755-.3845 1.6402-.9846 2.2231-1.7445.5828-.7598.9652-1.6552 1.1112-2.6027.1462-.9476.0515-1.9168-.2752-2.818-.3267-.9011-.8749-1.7049-1.5937-2.3369-.7188-.6321-1.585-1.0718-2.5183-1.2785s-1.9036-.1738-2.8209.0957c-.9172.2697-1.7517.7672-2.4263 1.4466z"/><path d="m23.2671 28.9178-.0294-.0279c.828.0836 1.6642-.0183 2.4482-.2986.784-.2802 1.4961-.7316 2.0848-1.3217.5886-.5902 1.0393-1.3043 1.3191-2.0905.28-.7863.3822-1.625.2995-2.4558l.0294.028c-.0823-.9775.0492-1.961.3848-2.8822.3358-.9211.8681-1.7577 1.5593-2.4513.6915-.6934 1.5253-1.2274 2.4435-1.5641.9184-.337 1.8987-.4687 2.873-.3862l-.0293-.028c1.1655.1099 2.3362-.1437 3.3528-.726 1.0167-.5823 1.8294-1.4651 2.3275-2.5278.498-1.0627.6572-2.25369.4558-3.41051-.2014-1.15683-.7536-2.22314-1.5814-3.05353-.8277-.83038-1.8907-1.3844-3.0438-1.58647-1.1532-.20208-2.3403-.04239-3.3997.45729-1.0594.49967-1.9393 1.31503-2.5198 2.33484-.5805 1.01979-.8332 2.1944-.7237 3.36358l-.0279-.0295c.0825.9774-.0487 1.9611-.3843 2.8824-.3357.9213-.868 1.758-1.5592 2.4517-.6914.6934-1.5255 1.2274-2.4438 1.5641-.9185.3367-1.899.4683-2.8733.3856l.0278.0295c-.828-.0836-1.6644.0183-2.4483.2986-.7839.28-1.496.7316-2.0847 1.3217-.5888.5901-1.0393 1.3042-1.3193 2.0905-.2798.7863-.3821 1.625-.2993 2.4558l-.0279-.028c.082.9773-.0496 1.9608-.3854 2.8819-.336.9209-.8681 1.7575-1.5593 2.4509-.6914.6935-1.5252 1.2273-2.4433 1.5643-.9181.3369-1.8984.469-2.8726.3867l.0278.0279c-1.16546-.1098-2.33634.1437-3.35291.7261-1.01656.5824-1.82932 1.465-2.32741 2.5278-.4981 1.0627-.65729 2.2537-.45586 3.4105.20144 1.1568.75371 2.2231 1.58145 3.0535.82775.8305 1.89068 1.3844 3.04384 1.5865 1.15319.202 2.34039.0423 3.39969-.4573 1.0594-.4997 1.9393-1.315 2.5197-2.3348.5806-1.0199.8333-2.1944.7238-3.3636l.0294.0279c-.0823-.9774.0492-1.9609.385-2.8822.3356-.9211.8679-1.7576 1.5592-2.4512.6914-.6935 1.5253-1.2274 2.4434-1.5642.9184-.3369 1.8987-.4687 2.8731-.3862z"/><path d="m12.9002 25.8036c.5862-.5916 1.0351-1.3057 1.3145-2.0913s.3825-1.6236.3019-2.4537l.0293.0279c-.0822-.9776.0492-1.9615.3852-2.883.3359-.9214.8684-1.7581 1.5601-2.4517s1.5259-1.2274 2.4446-1.564c.9186-.3367 1.8994-.4681 2.8739-.3851l-.0294-.0279c1.1651.1095 2.3355-.1442 3.3516-.7265 1.0161-.5822 1.8284-1.4648 2.3263-2.5271.4977-1.06245.6567-2.25301.4553-3.4094-.2013-1.15639-.7536-2.2223-1.5809-3.05238-.8274-.83008-1.8901-1.38392-3.0427-1.58599-1.1527-.20208-2.3396-.04253-3.3985.45684-1.0591.49938-1.9388 1.3143-2.5191 2.33363-.5805 1.01933-.8334 2.19345-.7242 3.36224l-.0279-.02793c.0823.97736-.0492 1.96099-.385 2.88209-.3358.9212-.8679 1.7577-1.5592 2.4513-.6914.6936-1.5253 1.2274-2.4435 1.5642-.9182.3369-1.8987.4688-2.87295.3862l.02784.0279c-.95194-.0856-1.91005.0713-2.7855.4559-.87546.3847-1.63996.9849-2.22266 1.7449-.58269.7599-.96472 1.6553-1.11071 2.6028-.14597.9476-.05116 1.9168.27563 2.8177.32679.9011.87502 1.7048 1.59386 2.3366.71885.632 1.58505 1.0716 2.51836 1.2783.93329.2066 1.90349.1735 2.82073-.096.9172-.2697 1.7517-.7672 2.4261-1.4465z"/><path d="m60.8157 10.3267h4.594v22.427h-4.594z"/><path d="m68.0114 25.0745c-.0063-1.6116.4642-3.1891 1.3521-4.5323s2.1531-2.3918 3.6356-3.013c1.4824-.6213 3.1152-.7872 4.6917-.4767s3.0257 1.0833 4.164 2.2207c1.1383 1.1373 1.9145 2.588 2.2304 4.1683.3158 1.5802.157 3.219-.4563 4.7087-.6134 1.4895-1.6536 2.7631-2.9889 3.6591-1.3355.8961-2.9058 1.3745-4.5125 1.3745-1.0664.0123-2.1245-.189-3.1126-.5918-.9881-.4029-1.8862-.9992-2.6418-1.7541-.7558-.7551-1.3538-1.6537-1.7592-2.6432-.4055-.9895-.6103-2.0503-.6025-3.1202zm11.6382 0c-.0192-.6947-.2421-1.3683-.6407-1.9367-.3988-.5683-.9556-1.0062-1.601-1.2586-.6454-.2526-1.3506-.3088-2.0277-.1614-.677.1474-1.2957.4916-1.7788.9898-.4829.4982-.809 1.1282-.9369 1.8112-.1281.6829-.0527 1.3887.2169 2.0289s.7213 1.1864 1.2985 1.5705c.5774.3841 1.2549.5889 1.9476.5889.4744.0127.9463-.0734 1.3861-.2528.4396-.1794.8374-.4481 1.1683-.7894.3308-.3413.5878-.7477.7542-1.1935.1666-.4459.2393-.9215.2135-1.3969z"/><path d="m102.552 17.3934v14.5862c0 5.161-4.0119 7.3428-8.0846 7.3428-1.4339.1077-2.8698-.183-4.1501-.8398-1.2801-.657-2.3553-1.6549-3.1075-2.8844l3.9196-2.2732c.3161.6408.8199 1.1695 1.4437 1.5154.624.3457 1.3383.4922 2.0474.4196.4532.063.9148.0229 1.3505-.1172.4356-.1401.8343-.3768 1.1666-.6922.3323-.3156.5895-.702.7528-1.1309.1632-.4288.2282-.8888.1903-1.3463v-1.4043c-.538.6603-1.2226 1.1849-1.9993 1.5317-.7766.3468-1.6233.5062-2.4725.4654-2.0204-.064-3.9368-.914-5.3434-2.3704-1.4067-1.4563-2.1932-3.4047-2.1932-5.4325s.7865-3.9761 2.1932-5.4324c1.4066-1.4565 3.323-2.3065 5.3434-2.3704.8492-.0408 1.6959.1185 2.4725.4653.7767.3468 1.4613.8715 1.9993 1.5317v-1.5672zm-4.4698 7.3722c.031-.7426-.1605-1.4777-.5496-2.1103-.389-.6328-.9579-1.1342-1.6334-1.4397-.6755-.3057-1.4266-.4014-2.1568-.2751-.7303.1263-1.4061.4689-1.9406.9839-.5345.5149-.9031 1.1784-1.0585 1.9052-.1553.7269-.0903 1.4838.1868 2.1732.2771.6895.7535 1.2801 1.3679 1.6956.6144.4156 1.3387.6371 2.0796.6362.4828.0338.9671-.0341 1.422-.1995.4549-.1655.8702-.4247 1.2192-.7608.349-.3363.624-.7421.8071-1.1915.1832-.4492.2706-.9319.2563-1.4172z"/><path d="m105.155 25.0745c-.007-1.6116.464-3.1891 1.352-4.5323.887-1.3432 2.153-2.3918 3.635-3.013 1.483-.6213 3.115-.7872 4.692-.4767 1.576.3105 3.026 1.0833 4.164 2.2207 1.138 1.1373 1.914 2.588 2.23 4.1683.316 1.5802.157 3.219-.456 4.7087-.613 1.4895-1.654 2.7631-2.989 3.6591-1.335.8961-2.906 1.3745-4.512 1.3745-1.067.0123-2.125-.189-3.113-.5918-.988-.4029-1.886-.9992-2.642-1.7541-.756-.7551-1.354-1.6537-1.759-2.6432-.406-.9895-.61-2.0503-.602-3.1202zm11.638 0c-.02-.6947-.242-1.3683-.641-1.9367-.399-.5683-.956-1.0062-1.601-1.2586-.645-.2526-1.351-.3088-2.028-.1614s-1.295.4916-1.779.9898c-.482.4982-.808 1.1282-.937 1.8112-.128.6829-.052 1.3887.217 2.0289.27.6402.722 1.1864 1.299 1.5705s1.255.5889 1.948.5889c.474.0127.946-.0734 1.385-.2528.44-.1794.838-.4481 1.169-.7894s.588-.7477.754-1.1935c.167-.4459.239-.9215.214-1.3969z"/><path d="m123.529 13.2768c0-.5469.162-1.0815.465-1.5363.303-.4547.733-.8091 1.237-1.0184.503-.2093 1.058-.2641 1.592-.1574.535.1067 1.026.3701 1.412.7568.385.3867.648.8794.754 1.4158s.052 1.0924-.157 1.5977c-.208.5052-.562.9371-1.015 1.241-.453.3038-.986.4659-1.531.4659-.729-.0072-1.426-.3008-1.942-.8179-.515-.517-.808-1.2161-.815-1.9472zm.464 4.1167h4.596v15.3621h-4.602z"/><path d="m148.425 25.0743c.053 1.0152-.095 2.031-.434 2.9889-.34.9579-.865 1.8389-1.545 2.5926-.68.7535-1.502 1.3649-2.419 1.7988-.916.4337-1.909.6815-2.922.729-.851.0465-1.702-.0975-2.491-.4216-.789-.3244-1.496-.8206-2.07-1.4529v7.5895h-4.594v-21.5054h4.594v1.4431c.574-.6318 1.281-1.1278 2.07-1.4516.789-.324 1.64-.4679 2.491-.4213 1.013.0473 2.006.295 2.923.7288.917.4339 1.739 1.0453 2.419 1.7991s1.205 1.6352 1.545 2.5934c.339.958.486 1.9741.433 2.9896zm-4.594 0c-.018-.719-.247-1.4166-.658-2.0058-.412-.589-.987-1.0434-1.654-1.3059-.668-.2627-1.397-.3222-2.098-.1707-.701.1513-1.342.5066-1.842 1.0215-.501.515-.839 1.1664-.972 1.8732-.133.7067-.056 1.4369.223 2.0997.278.6627.746 1.2281 1.343 1.6258.597.3976 1.298.6097 2.015.6096.492.022.984-.0607 1.442-.2426.458-.1817.872-.4587 1.216-.8125.344-.3539.61-.7766.779-1.2406.17-.4639.24-.9588.206-1.4517z"/><path d="m162.601 28.1453c0 3.5333-3.061 5.0384-6.368 5.0384-1.337.1214-2.678-.162-3.852-.8138s-2.126-1.6418-2.733-2.842l3.98-2.2733c.161.5547.507 1.0375.979 1.3672.473.3299 1.045.4871 1.619.4452 1.102 0 1.654-.3383 1.654-.9512 0-1.6914-7.535-.7991-7.535-6.1138 0-3.3502 2.819-5.0384 6.004-5.0384 1.197-.038 2.382.2468 3.432.8249s1.927 1.4282 2.538 2.4616l-3.919 2.1197c-.172-.4024-.458-.7452-.823-.9855-.365-.2404-.792-.3676-1.228-.3661-.797 0-1.287.3104-1.287.8597.006 1.7519 7.539.5834 7.539 6.2674z"/><path d="m179.382 17.3933v15.3621h-4.594v-1.4447c-.53.6375-1.203 1.1398-1.964 1.4656-.761.3259-1.587.466-2.413.4089-3.094 0-5.723-2.2112-5.723-6.3621v-9.4298h4.594v8.7548c-.039.3659.003.7359.122 1.0839.117.3482.311.6663.564.9321.254.2658.562.473.904.6072.34.1343.707.1923 1.073.1699 1.685 0 2.848-.9822 2.848-3.1639v-8.3793z"/><path d="m205.724 23.3226v9.4313h-4.594v-9.0325c0-1.5363-.734-2.5185-2.204-2.5185-1.531 0-2.39 1.0754-2.39 2.8878v8.6632h-4.592v-9.0325c0-1.5363-.735-2.5185-2.206-2.5185-1.531 0-2.388 1.0754-2.388 2.8878v8.6632h-4.594v-15.362h4.594v1.412c.476-.6264 1.101-1.1233 1.817-1.4449.718-.3219 1.504-.4582 2.287-.397.785-.0386 1.568.1279 2.272.4831.702.355 1.301.887 1.738 1.5435.509-.687 1.184-1.2332 1.96-1.5876.777-.3544 1.631-.5054 2.481-.439 3.516.0016 5.819 2.52 5.819 6.3606z"/><path d="m209.61 17.2987c1.883 0 3.409-1.5312 3.409-3.42s-1.526-3.42-3.409-3.42c-1.882 0-3.409 1.5312-3.409 3.42s1.527 3.42 3.409 3.42z"/></g></svg>