<svg fill="none" height="35" width="187" xmlns="http://www.w3.org/2000/svg"><clipPath id="a"><path d="M0 0h186.207v34.138H0z"/></clipPath><g clip-path="url(#a)" fill="#02150b"><path d="M44.882 1.45h4.65v24.795h7.649v4.132H44.882zm21.083 29.34c-2.282 0-4.03-.633-5.24-1.9-1.212-1.268-1.818-3.058-1.818-5.373V8.31c0-2.314.606-4.105 1.817-5.372 1.212-1.267 2.959-1.9 5.24-1.9s4.03.633 5.242 1.9c1.211 1.267 1.817 3.058 1.817 5.372v15.207c0 2.315-.606 4.105-1.817 5.373-1.212 1.267-2.959 1.9-5.241 1.9zm0-4.132c1.606 0 2.409-.95 2.409-2.851V8.02c0-1.901-.803-2.851-2.41-2.851-1.605 0-2.408.95-2.408 2.85v15.787c0 1.9.803 2.851 2.409 2.851zM82.76 30.79c-2.254 0-3.972-.62-5.156-1.86-1.183-1.266-1.775-3.07-1.775-5.413V8.31c0-2.342.592-4.132 1.775-5.372 1.184-1.267 2.902-1.9 5.156-1.9s3.973.633 5.156 1.9c1.184 1.24 1.775 3.03 1.775 5.372v2.48h-4.395V8.02c0-1.9-.803-2.85-2.409-2.85-1.606 0-2.409.95-2.409 2.85v15.828c0 1.874.803 2.81 2.409 2.81 1.606 0 2.41-.937 2.41-2.81v-5.661h-2.325v-4.133h6.72v9.463c0 2.342-.592 4.147-1.776 5.414-1.183 1.24-2.902 1.86-5.156 1.86zm16.636 0c-2.282 0-4.029-.633-5.24-1.9-1.212-1.268-1.818-3.058-1.818-5.373V8.31c0-2.314.606-4.105 1.818-5.372 1.211-1.267 2.958-1.9 5.24-1.9 2.283 0 4.029.633 5.241 1.9 1.212 1.267 1.817 3.058 1.817 5.372v15.207c0 2.315-.605 4.105-1.817 5.373-1.212 1.267-2.958 1.9-5.24 1.9zm0-4.132c1.606 0 2.409-.95 2.409-2.851V8.02c0-1.901-.803-2.851-2.409-2.851-1.606 0-2.409.95-2.409 2.85v15.787c0 1.9.803 2.851 2.41 2.851zM109.607 1.45h4.649v28.927h-4.649zm8.131 0h6.846c2.311 0 4.043.606 5.199 1.819 1.156 1.212 1.733 2.989 1.733 5.33v2.852c0 2.341-.577 4.118-1.733 5.33-1.156 1.213-2.888 1.819-5.199 1.819h-2.197v11.777h-4.649zm6.846 13.017c.762 0 1.325-.206 1.691-.62.395-.413.592-1.115.592-2.107V8.31c0-.992-.197-1.694-.592-2.107-.366-.414-.929-.62-1.691-.62h-2.197v8.884zm15.664 16.323c-2.253 0-3.958-.62-5.113-1.86-1.155-1.266-1.733-3.07-1.733-5.413v-1.653h4.396v1.984c0 1.874.803 2.81 2.409 2.81.789 0 1.38-.22 1.774-.661.423-.468.635-1.212.635-2.232 0-1.212-.282-2.272-.845-3.182-.564-.936-1.606-2.052-3.129-3.347-1.915-1.653-3.254-3.14-4.015-4.463-.76-1.35-1.14-2.865-1.14-4.545 0-2.287.591-4.05 1.775-5.29 1.183-1.267 2.902-1.9 5.156-1.9 2.226 0 3.903.633 5.029 1.9 1.156 1.24 1.733 3.03 1.733 5.372v1.2h-4.396V8.02c0-.992-.196-1.708-.591-2.149-.394-.468-.972-.702-1.733-.702-1.55 0-2.324.922-2.324 2.768 0 1.047.282 2.025.845 2.934.591.91 1.648 2.011 3.17 3.306 1.944 1.653 3.282 3.155 4.015 4.505.732 1.35 1.099 2.934 1.099 4.752 0 2.37-.606 4.187-1.818 5.455-1.183 1.267-2.916 1.9-5.199 1.9zm16.445 0c-2.254 0-3.973-.62-5.157-1.86-1.183-1.266-1.774-3.07-1.774-5.413V1.45h4.649v22.398c0 .992.197 1.708.591 2.149.423.44 1.015.661 1.775.661.761 0 1.338-.22 1.733-.661.422-.44.634-1.157.634-2.149V1.45h4.48v22.067c0 2.342-.592 4.147-1.775 5.414-1.184 1.24-2.903 1.86-5.156 1.86zm10.241-29.34h6.636l2.959 20.704h.083l2.96-20.704h6.635v28.927h-4.396V8.475h-.084l-3.382 21.902h-3.888l-3.381-21.902h-.084v21.902h-4.058zM0 30.378c5.72 0 10.356-4.534 10.356-10.126 0-5.593-4.637-10.126-10.356-10.126v7.088c1.716 0 3.107 1.36 3.107 3.038 0 1.677-1.391 3.037-3.107 3.037zm34.52-16.877a18.934 18.934 0 0 0-5.61-.844c-10.247 0-18.554 8.123-18.554 18.142 0 1.006.084 1.992.245 2.954h11.528a7.096 7.096 0 0 1-.64-2.954c0-4.007 3.323-7.257 7.421-7.257 2.24 0 4.25.971 5.61 2.505zM1.82 0c.86 7.594 7.445 13.5 15.44 13.5 7.995 0 14.58-5.907 15.439-13.501h-11.11c-.685 1.68-2.365 2.869-4.33 2.869-1.963 0-3.643-1.188-4.33-2.87z"/></g></svg>