<svg fill="none" height="47" width="217" xmlns="http://www.w3.org/2000/svg"><path d="M34.678 20.748a5.673 5.673 0 0 0-1.618 4.545l-.028-.028a6.76 6.76 0 0 1-1.944 5.334 6.716 6.716 0 0 1-5.317 1.95l.028.028a5.675 5.675 0 0 0-3.352.729 5.7 5.7 0 0 0-2.325 2.529 5.724 5.724 0 0 0 1.129 6.462 5.682 5.682 0 0 0 6.443 1.127 5.717 5.717 0 0 0 3.242-5.698l.03.028a6.76 6.76 0 0 1 1.943-5.334 6.716 6.716 0 0 1 5.317-1.95l-.03-.028a5.664 5.664 0 0 0 5.01-2.2 5.704 5.704 0 0 0 .835-5.42 5.697 5.697 0 0 0-1.593-2.337 5.67 5.67 0 0 0-5.34-1.183 5.676 5.676 0 0 0-2.426 1.446zm-11.411 8.17-.03-.028a5.6 5.6 0 0 0 4.534-1.62 5.637 5.637 0 0 0 1.618-4.547l.03.028a6.763 6.763 0 0 1 1.944-5.333 6.718 6.718 0 0 1 5.316-1.95l-.029-.029a5.673 5.673 0 0 0 3.353-.726 5.7 5.7 0 0 0 2.327-2.527 5.725 5.725 0 0 0-1.125-6.464 5.673 5.673 0 0 0-6.444-1.13 5.696 5.696 0 0 0-2.52 2.335 5.721 5.721 0 0 0-.723 3.364l-.028-.03a6.76 6.76 0 0 1-1.944 5.335 6.717 6.717 0 0 1-5.317 1.95l.028.029a5.6 5.6 0 0 0-4.533 1.62 5.636 5.636 0 0 0-1.619 4.546l-.028-.028a6.764 6.764 0 0 1-1.944 5.333 6.72 6.72 0 0 1-5.316 1.951l.028.028a5.674 5.674 0 0 0-3.353.726 5.7 5.7 0 0 0-2.328 2.528 5.724 5.724 0 0 0 1.126 6.464 5.682 5.682 0 0 0 6.443 1.13 5.696 5.696 0 0 0 2.52-2.336c.58-1.02.833-2.194.724-3.363l.03.028a6.76 6.76 0 0 1 1.944-5.334 6.718 6.718 0 0 1 5.316-1.95zM12.9 25.804a5.671 5.671 0 0 0 1.617-4.545l.029.027a6.762 6.762 0 0 1 1.945-5.334 6.715 6.715 0 0 1 5.319-1.95l-.03-.027a5.673 5.673 0 0 0 3.352-.727 5.7 5.7 0 0 0 2.326-2.527 5.723 5.723 0 0 0-1.125-6.462 5.671 5.671 0 0 0-6.441-1.13 5.693 5.693 0 0 0-2.52 2.335 5.72 5.72 0 0 0-.724 3.362l-.028-.028a6.76 6.76 0 0 1-1.944 5.334 6.716 6.716 0 0 1-5.316 1.95l.027.028a5.664 5.664 0 0 0-5.008 2.2 5.706 5.706 0 0 0-.835 5.421 5.696 5.696 0 0 0 1.594 2.337 5.671 5.671 0 0 0 5.34 1.182 5.675 5.675 0 0 0 2.425-1.446zm47.916-15.477h4.594v22.427h-4.594zm7.195 14.748c-.006-1.612.465-3.19 1.352-4.533S71.517 18.15 73 17.53a8.091 8.091 0 0 1 8.856 1.744 8.167 8.167 0 0 1 1.774 8.877 8.137 8.137 0 0 1-2.989 3.66 8.098 8.098 0 0 1-4.513 1.374 8 8 0 0 1-5.754-2.346 8.05 8.05 0 0 1-2.362-5.763zm11.639 0a3.544 3.544 0 0 0-.641-1.937 3.525 3.525 0 0 0-3.629-1.42 3.521 3.521 0 0 0-1.779.99 3.538 3.538 0 0 0-.72 3.84c.27.64.722 1.186 1.299 1.57a3.516 3.516 0 0 0 1.947.59 3.427 3.427 0 0 0 2.555-1.043 3.447 3.447 0 0 0 .968-2.59zm22.902-7.682V31.98c0 5.16-4.012 7.342-8.085 7.342a7.81 7.81 0 0 1-4.15-.84 7.84 7.84 0 0 1-3.107-2.884l3.92-2.273a3.49 3.49 0 0 0 3.491 1.935 3.043 3.043 0 0 0 2.517-.81 3.062 3.062 0 0 0 .943-2.477V30.57a5.44 5.44 0 0 1-4.472 1.997 7.77 7.77 0 0 1-5.343-2.37 7.82 7.82 0 0 1-2.194-5.433 7.82 7.82 0 0 1 2.193-5.432 7.77 7.77 0 0 1 5.344-2.37 5.424 5.424 0 0 1 4.472 1.997V17.39zm-4.47 7.373a3.732 3.732 0 0 0-2.183-3.55 3.7 3.7 0 0 0-4.097.708 3.727 3.727 0 0 0-.872 4.079c.277.69.754 1.28 1.368 1.695a3.703 3.703 0 0 0 2.08.637 3.455 3.455 0 0 0 2.64-.96 3.476 3.476 0 0 0 1.064-2.61zm7.073.309a8.155 8.155 0 0 1 1.352-4.533 8.118 8.118 0 0 1 3.635-3.013 8.092 8.092 0 0 1 8.856 1.744 8.167 8.167 0 0 1 1.774 8.877 8.137 8.137 0 0 1-2.989 3.66 8.097 8.097 0 0 1-4.512 1.374 8 8 0 0 1-5.755-2.346 8.06 8.06 0 0 1-2.361-5.763zm11.638 0a3.528 3.528 0 0 0-2.242-3.195 3.513 3.513 0 0 0-3.807.828 3.55 3.55 0 0 0-.72 3.84c.27.64.722 1.186 1.299 1.57s1.255.59 1.948.59a3.42 3.42 0 0 0 2.554-1.043 3.463 3.463 0 0 0 .968-2.59zm6.736-11.798a2.771 2.771 0 0 1 1.702-2.555 2.746 2.746 0 0 1 3.004.6 2.768 2.768 0 0 1 .597 3.013 2.761 2.761 0 0 1-2.546 1.707 2.782 2.782 0 0 1-1.942-.818 2.798 2.798 0 0 1-.815-1.947zm.464 4.117h4.596v15.362h-4.602zm24.432 7.68a7.73 7.73 0 0 1-1.979 5.582 7.688 7.688 0 0 1-5.341 2.528 5.733 5.733 0 0 1-4.561-1.875v7.59h-4.594V17.393h4.594v1.443a5.743 5.743 0 0 1 4.561-1.873 7.67 7.67 0 0 1 5.342 2.528 7.731 7.731 0 0 1 1.978 5.583zm-4.594 0a3.651 3.651 0 0 0-2.312-3.312 3.632 3.632 0 0 0-3.94.851 3.665 3.665 0 0 0 .594 5.599c.597.398 1.298.61 2.015.61a3.487 3.487 0 0 0 2.658-1.055 3.517 3.517 0 0 0 .985-2.692zm18.77 3.071c0 3.534-3.061 5.039-6.368 5.039-1.337.121-2.678-.162-3.852-.814s-2.126-1.642-2.733-2.842l3.98-2.273a2.512 2.512 0 0 0 2.598 1.812c1.102 0 1.654-.338 1.654-.951 0-1.692-7.535-.8-7.535-6.114 0-3.35 2.819-5.038 6.004-5.038 1.197-.038 2.382.246 3.432.825s1.927 1.428 2.538 2.461l-3.919 2.12a2.228 2.228 0 0 0-2.051-1.352c-.797 0-1.287.31-1.287.86.006 1.752 7.539.583 7.539 6.267zm16.781-10.752v15.362h-4.594v-1.444a5.232 5.232 0 0 1-4.377 1.874c-3.094 0-5.723-2.211-5.723-6.362v-9.43h4.594v8.755c-.039.366.003.736.122 1.084a2.518 2.518 0 0 0 1.468 1.54c.34.134.707.192 1.073.17 1.685 0 2.848-.983 2.848-3.165v-8.379zm26.342 5.93v9.43h-4.594v-9.032c0-1.536-.734-2.518-2.204-2.518-1.531 0-2.39 1.075-2.39 2.888v8.663h-4.592V23.72c0-1.536-.735-2.518-2.206-2.518-1.531 0-2.388 1.075-2.388 2.888v8.663h-4.594V17.392h4.594v1.412a4.695 4.695 0 0 1 4.104-1.842 4.549 4.549 0 0 1 4.01 2.027 5.035 5.035 0 0 1 4.441-2.027c3.516.002 5.819 2.52 5.819 6.36zm3.886-6.024c1.883 0 3.409-1.531 3.409-3.42s-1.526-3.42-3.409-3.42c-1.882 0-3.409 1.53-3.409 3.42s1.527 3.42 3.409 3.42z" fill="#02150b"/></svg>