<svg fill="none" height="50" width="204" xmlns="http://www.w3.org/2000/svg"><clipPath id="a"><path d="M0 0h203.921v49.655H0z"/></clipPath><g clip-path="url(#a)" fill="#02150b"><path d="M61.37 34.703h14.42v-4.256h-9.295V14.416h-5.126zm22.966-2.837c-2.056 0-3.128-1.76-3.128-4.398s1.071-4.427 3.128-4.427 3.156 1.788 3.156 4.427-1.1 4.398-3.156 4.398zm.029 3.291c4.778 0 7.905-3.32 7.905-7.69 0-4.369-3.127-7.689-7.906-7.689-4.749 0-7.934 3.32-7.934 7.69 0 4.37 3.185 7.69 7.934 7.69zm16.176 4.569c2.201 0 4.141-.483 5.444-1.618 1.188-1.05 1.97-2.639 1.97-4.823v-13.11h-4.518v1.561h-.058c-.869-1.22-2.201-1.986-4.17-1.986-3.678 0-6.226 3.008-6.226 7.264 0 4.455 3.098 6.895 6.429 6.895 1.795 0 2.925-.71 3.793-1.674h.116v1.447c0 1.759-.84 2.78-2.838 2.78-1.564 0-2.346-.652-2.606-1.418H93.3c.464 3.036 3.157 4.682 7.24 4.682zm-.029-9.25c-1.766 0-2.925-1.42-2.925-3.604 0-2.213 1.159-3.632 2.925-3.632 1.969 0 3.012 1.646 3.012 3.604 0 2.043-.956 3.631-3.012 3.631zm16.732 1.39c-2.056 0-3.128-1.76-3.128-4.398s1.072-4.427 3.128-4.427 3.156 1.788 3.156 4.427-1.1 4.398-3.156 4.398zm.029 3.291c4.778 0 7.906-3.32 7.906-7.69 0-4.369-3.128-7.689-7.906-7.689-4.75 0-7.935 3.32-7.935 7.69 0 4.37 3.185 7.69 7.935 7.69zm9.283-.454h4.721V20.176h-4.721zm0-16.542h4.721v-3.745h-4.721zm6.77 21.338h4.72v-6.3h.058c.927 1.22 2.288 1.958 4.199 1.958 3.88 0 6.458-3.007 6.458-7.717 0-4.37-2.404-7.69-6.342-7.69-2.027 0-3.475.88-4.489 2.185h-.087v-1.76h-4.517zm7.761-7.917c-2.028 0-3.186-1.617-3.186-3.972s1.043-4.143 3.099-4.143c2.027 0 2.983 1.646 2.983 4.143 0 2.468-1.101 3.972-2.896 3.972zm15.359 3.575c3.881 0 6.748-1.645 6.748-4.823 0-3.717-3.07-4.37-5.676-4.796-1.883-.34-3.562-.482-3.562-1.504 0-.907.898-1.333 2.056-1.333 1.303 0 2.201.397 2.375 1.702h4.343c-.231-2.865-2.49-4.653-6.689-4.653-3.504 0-6.4 1.589-6.4 4.653 0 3.405 2.751 4.086 5.328 4.512 1.97.34 3.765.482 3.765 1.787 0 .937-.898 1.448-2.317 1.448-1.563 0-2.548-.71-2.722-2.157h-4.46c.145 3.206 2.867 5.164 7.211 5.164zm13.16-.028c2.056 0 3.359-.795 4.43-2.213h.087v1.787h4.518V20.175h-4.72v8.115c0 1.731-.985 2.923-2.607 2.923-1.506 0-2.23-.88-2.23-2.469v-8.569h-4.691v9.534c0 3.235 1.796 5.42 5.213 5.42zm11.088-.426h4.72V26.56c0-1.731.869-2.951 2.346-2.951 1.419 0 2.085.908 2.085 2.468v8.626h4.72V26.56c0-1.731.84-2.951 2.346-2.951 1.419 0 2.085.908 2.085 2.468v8.626h4.72v-9.448c0-3.263-1.679-5.505-5.039-5.505-1.911 0-3.504.794-4.662 2.554h-.058c-.753-1.56-2.23-2.554-4.17-2.554-2.143 0-3.562.993-4.489 2.497h-.087v-2.071h-4.517z"/><path clip-rule="evenodd" d="M24.958 1.137c13.59 0 24.605 10.793 24.605 24.108 0 13.315-11.016 24.108-24.605 24.108S.354 38.56.354 25.245c0-13.315 11.015-24.108 24.604-24.108zm23.66 24.108c0-12.803-10.592-23.183-23.66-23.183a24.37 24.37 0 0 0-3.11.199 23.372 23.372 0 0 1 1.996-.085c12.486 0 22.609 9.918 22.609 22.152 0 12.234-10.123 22.152-22.609 22.152-11.821 0-21.524-8.89-22.524-20.218.544 12.332 10.919 22.166 23.638 22.166 13.068 0 23.66-10.38 23.66-23.183zm-3.11-.917C45.508 12.605 35.81 3.1 23.844 3.1c-.972 0-1.928.063-2.866.184a21.314 21.314 0 0 1 1.752-.072c11.384 0 20.612 9.042 20.612 20.197 0 11.154-9.228 20.196-20.612 20.196-10.764 0-19.601-8.084-20.532-18.394.473 11.314 9.984 20.343 21.646 20.343 11.965 0 21.664-9.504 21.664-21.227zM22.73 4.138c10.862 0 19.668 8.628 19.668 19.272S33.592 42.68 22.73 42.68c-10.611 0-19.26-8.232-19.655-18.534.853 9.298 8.828 16.586 18.54 16.586 10.281 0 18.616-8.166 18.616-18.24s-8.335-18.24-18.616-18.24a19.2 19.2 0 0 0-1.579.066c.88-.119 1.78-.18 2.694-.18zm16.556 18.354c0-9.562-7.911-17.314-17.67-17.314-.825 0-1.637.056-2.431.163.434-.034.872-.05 1.315-.05 9.178 0 16.62 7.29 16.62 16.283 0 8.993-7.442 16.284-16.62 16.284-8.64 0-15.739-6.459-16.543-14.717.348 9.262 8.12 16.666 17.658 16.666 9.76 0 17.671-7.752 17.671-17.315zM20.5 6.216c8.657 0 15.675 6.876 15.675 15.358S29.157 36.932 20.5 36.932c-8.487 0-15.398-6.608-15.667-14.859.727 7.248 6.965 12.91 14.553 12.91 8.076 0 14.623-6.414 14.623-14.327S27.462 6.328 19.386 6.328c-.37 0-.738.013-1.101.04a16.13 16.13 0 0 1 2.215-.152zm12.564 14.44c0-7.402-6.124-13.403-13.679-13.403-.69 0-1.367.05-2.029.147.302-.022.607-.032.915-.032 6.973 0 12.626 5.538 12.626 12.37 0 6.833-5.653 12.371-12.626 12.371-6.534 0-11.909-4.863-12.56-11.097.193 7.238 6.242 13.046 13.675 13.046 7.554 0 13.678-6 13.678-13.402zM18.271 8.293c6.452 0 11.682 5.124 11.682 11.445s-5.23 11.446-11.682 11.446c-6.37 0-11.548-4.995-11.679-11.205.589 5.207 5.094 9.256 10.565 9.256 5.87 0 10.63-4.663 10.63-10.415s-4.76-10.415-10.63-10.415c-.225 0-.448.007-.669.02a12.009 12.009 0 0 1 1.783-.132zm8.571 10.527c0-5.24-4.336-9.49-9.685-9.49a9.95 9.95 0 0 0-1.578.126c.153-.008.307-.012.462-.012 4.768 0 8.634 3.787 8.634 8.459s-3.866 8.46-8.634 8.46c-4.409 0-8.046-3.239-8.569-7.42.067 5.184 4.377 9.367 9.685 9.367 5.35 0 9.685-4.249 9.685-9.49zm-10.8-8.451c4.246 0 7.689 3.373 7.689 7.534s-3.443 7.534-7.69 7.534c-4.246 0-7.689-3.373-7.689-7.534v-.03c.442 3.17 3.217 5.614 6.575 5.614 3.665 0 6.636-2.911 6.636-6.502s-2.97-6.503-6.636-6.503c-.083 0-.165.002-.248.005a7.891 7.891 0 0 1 1.362-.118zm4.577 6.616c0-3.08-2.548-5.577-5.692-5.577s-5.692 2.497-5.692 5.577 2.548 5.577 5.692 5.577 5.692-2.497 5.692-5.577z" fill-rule="evenodd"/></g></svg>